<svg width="32" height="32" viewBox="0 0 32 32" fill="none" xmlns="http://www.w3.org/2000/svg">
<rect x="0.5" y="0.5" width="31" height="31" rx="7.5" fill="white" stroke="#F2F2F2"/>
<path d="M16.1667 10.7917C16.3998 10.7917 16.6283 10.8669 16.7966 11.0114C16.9624 11.1539 17.0769 11.3702 17.0769 11.6686V15.2565H20.6657C20.9639 15.2566 21.1795 15.3702 21.322 15.5358C21.4667 15.7042 21.5417 15.9333 21.5417 16.1667C21.5417 16.4 21.4667 16.6292 21.322 16.7975C21.1795 16.9632 20.9639 17.0767 20.6657 17.0768H17.0769V20.6647C17.0769 20.9632 16.9624 21.1794 16.7966 21.322C16.6283 21.4664 16.3998 21.5417 16.1667 21.5417C15.9334 21.5417 15.7042 21.4667 15.5358 21.322C15.3701 21.1794 15.2565 20.9632 15.2565 20.6647V17.0768H11.6677C11.3695 17.0768 11.1539 16.9632 11.0114 16.7975C10.8667 16.6292 10.7917 16.4 10.7917 16.1667C10.7917 15.9333 10.8667 15.7042 11.0114 15.5358C11.1539 15.3702 11.3695 15.2566 11.6677 15.2565H15.2565V11.6686C15.2565 11.3702 15.3701 11.1539 15.5358 11.0114C15.7042 10.8667 15.9334 10.7917 16.1667 10.7917Z" fill="#D3D3D3" stroke="#F2F2F2" stroke-width="0.25"/>
</svg>
