<svg width="30" height="30" viewBox="0 0 30 30" fill="none" xmlns="http://www.w3.org/2000/svg">
<rect x="0.5" y="0.5" width="29" height="29" rx="6.5" fill="white" stroke="#F8F8F8"/>
<path d="M17.3711 9.5H17.3721C17.7951 9.49903 18.2151 9.57068 18.6123 9.71191L18.7812 9.77734C19.2114 9.95394 19.6035 10.2112 19.9355 10.5342C20.2253 10.8154 20.4646 11.1431 20.6426 11.5029L20.7148 11.6592C20.9047 12.0972 21.0014 12.5608 21 13.0381V13.0391C21 13.4864 20.9075 13.9635 20.7158 14.4609V14.4619C20.5571 14.8768 20.322 15.3176 20.0156 15.7715C19.5306 16.4889 18.8542 17.2506 18 18.0332C16.5796 19.3333 15.1722 20.2322 15.1211 20.2646L14.751 20.5H14.749L14.3789 20.2646L14.3711 20.2598L14.3525 20.248C14.3397 20.2398 14.3217 20.2278 14.2988 20.2129C14.2532 20.1831 14.1881 20.1404 14.1074 20.0859C13.9461 19.9769 13.7204 19.821 13.4521 19.625C12.9145 19.2323 12.2085 18.6825 11.501 18.0342C10.6465 17.2514 9.96949 16.4891 9.48438 15.7715H9.4834C9.17775 15.3186 8.94399 14.8774 8.7832 14.4609H8.78418C8.59245 13.9635 8.5 13.4864 8.5 13.0391C8.50001 12.5605 8.59704 12.0965 8.78711 11.6582C8.94705 11.2895 9.16924 10.9509 9.44434 10.6572L9.56543 10.5342C9.89931 10.2097 10.288 9.95472 10.7197 9.77734H10.7207C11.1672 9.59334 11.6397 9.50004 12.1299 9.5C12.8096 9.5 13.4723 9.68443 14.0469 10.0322C14.1843 10.1154 14.3144 10.2066 14.4375 10.3057L14.751 10.5586L15.0645 10.3057C15.1875 10.2067 15.3177 10.1154 15.4551 10.0322C16.0295 9.68453 16.6915 9.50005 17.3711 9.5Z" stroke="#ECECEC"/>
</svg>
